<?xml version="1.0" encoding="utf-8"?>
<!-- Generator: Adobe Illustrator 21.1.0, SVG Export Plug-In . SVG Version: 6.00 Build 0)  -->
<svg version="1.1" id="Layer_1" xmlns="http://www.w3.org/2000/svg" xmlns:xlink="http://www.w3.org/1999/xlink" x="0px" y="0px"
	 viewBox="0 0 3560 3416" style="enable-background:new 0 0 3560 3416;" xml:space="preserve">
<style type="text/css">
	.st0{fill:#808080;stroke:#000000;stroke-miterlimit:10;}
</style>
<g>
	<path class="st0" d="M3444.4,1526.2h-353.7l-0.2-1417l-1771.2-0.3v0.3h-0.4l0.4,495.7l-496.6-0.4v1275.7H609.6l0.3-425h-0.3v-0.3
		l-424.9,0v851h0.2v0.2h637.8v991.8h2268v-850.3l354.2,0.3L3444.4,1526.2z M3374.1,2376.2h-496.8v71.3l142.6,0.1v779.6H893.6v-992.6
		l-638,0.6v-709.1h283.1v425.1h354.9v-354.4h708.2v-70.8l-211.6,0V959.6h-70.9v566.3H893.6V675.8l496.6,0.4V180.1h1629.7v1346.1
		l-142.6,0v70.9h496.8V2376.2z"/>
	<polygon class="st0" points="2381.9,1596.8 2593.8,1596.8 2593.8,1526.1 1885.2,1526 1885.2,1596.8 2311.1,1596.8 2310.9,2447.1 
		2593.8,2447.3 2593.8,2376.2 2381.9,2376.2 	"/>
</g>
</svg>
