<?xml version="1.0" encoding="utf-8"?>
<!-- Generator: Adobe Illustrator 21.1.0, SVG Export Plug-In . SVG Version: 6.00 Build 0)  -->
<svg version="1.1" id="Layer_1" xmlns="http://www.w3.org/2000/svg" xmlns:xlink="http://www.w3.org/1999/xlink" x="0px" y="0px"
	 viewBox="0 0 3272 3168" style="enable-background:new 0 0 3272 3168;" xml:space="preserve">
<style type="text/css">
	.st0{fill:#808080;stroke:#000000;stroke-miterlimit:10;}
</style>
<g>
	<path class="st0" d="M2753.7,1398.2l-0.2-1346H981.9l0.4,1487H627.6v-354.3l-424.9,0v779.5l779.6,0.6v1134.2l1771.4-0.4v-920.8
		h353.7v-779.9H2753.7z M3036.9,2107.2H1832.2v-212.6h-70.9v212.6h-212.1v70.9h1133.6v850.1H1053.2v-850.1h212.6v-70.9h-212.6
		v-212.6l-779.6-0.4v-638.1h283.1l-0.3,354h0.3v0.3l496.5,0.8v-142.1h353.6v-70.9h-353.6V123.1h1629.7v1275.1h-425.6v70.9h779.6
		V2107.2z"/>
	<polygon class="st0" points="1973.8,1469.1 1973.8,1398.2 1690.2,1398.2 1690.2,1469.1 1761.4,1469.1 1761.4,1611.2 1832.2,1611.2 
		1832.2,1469.1 	"/>
</g>
</svg>
