<?xml version="1.0" encoding="utf-8"?>
<!-- Generator: Adobe Illustrator 21.1.0, SVG Export Plug-In . SVG Version: 6.00 Build 0)  -->
<svg version="1.1" id="Layer_1" xmlns="http://www.w3.org/2000/svg" xmlns:xlink="http://www.w3.org/1999/xlink" x="0px" y="0px"
	 viewBox="0 0 3605.3 3461.3" style="enable-background:new 0 0 3605.3 3461.3;" xml:space="preserve">
<style type="text/css">
	.st0{fill:#808080;stroke:#000000;stroke-miterlimit:10;}
</style>
<g>
	<path class="st0" d="M3470.7,1591.9l-283,0.3V174.9h-0.2v-0.7H1276.9l0.3,1134l-1121.8,0.7h-15.1v1984h0.6v0.2h2976l-0.2-921
		l354-0.6V1591.9z M3399.9,2301.2l-991.7-0.2v-141.4h-70.9V2301l-496.1-0.1v71.1h1204.6v850.1H1415.2v-850.1h142.6v-71.1l-213.4,0
		v142.3H849.2v70.9h495.1v708.1H211.2v-708.1h354.6v-70.9H211.2V1379.1h1066.1l-3.4,284h425.9v-70.9h-354.6V245.1h1771.7v1347.1
		h-283.6v70.9h566.6V2301.2z"/>
	<polygon class="st0" points="2549.8,1663.1 2549.8,1592.2 1983.2,1592.2 1983.2,1663.1 2337.4,1663.1 2337.4,1876.2 2408.2,1876.2 
		2408.2,1663.1 	"/>
</g>
</svg>
