<?xml version="1.0" encoding="utf-8"?>
<!-- Generator: Adobe Illustrator 21.1.0, SVG Export Plug-In . SVG Version: 6.00 Build 0)  -->
<svg version="1.1" id="Layer_1" xmlns="http://www.w3.org/2000/svg" xmlns:xlink="http://www.w3.org/1999/xlink" x="0px" y="0px"
	 viewBox="0 0 3605.3 3461.3" style="enable-background:new 0 0 3605.3 3461.3;" xml:space="preserve">
<style type="text/css">
	.st0{fill:#808080;stroke:#000000;stroke-miterlimit:10;}
</style>
<g>
	<path class="st0" d="M3441,1550.2l-283,0.3V133.2h-0.2v-0.7H1247.2l0.3,1134l-1121.8,0.7h-15.1v1984h0.6v0.2h2976l-0.2-921l354-0.6
		V1550.2z M3370.2,2259.5l-1133.7-0.2V2118h-70.9v141.4l-354.1-0.1v71.1h1204.6v850.1H1385.5v-850.1h142.6v-71.1l-213.4,0v142.3
		H819.5v70.9h495.1v708.1H181.5v-708.1h354.6v-70.9H181.5V1337.4h1066.1l-3.4,284h425.9v-70.9h-354.6V203.4h1771.7v1347.1h-283.6
		v70.9h566.6V2259.5z"/>
	<polygon class="st0" points="2520.1,1621.4 2520.1,1550.5 1953.5,1550.5 1953.5,1621.4 2165.6,1621.4 2165.6,1834.5 2236.5,1834.5 
		2236.5,1621.4 	"/>
</g>
</svg>
